<svg xmlns="http://www.w3.org/2000/svg" width="168" height="168" xmlns:xlink="http://www.w3.org/1999/xlink"><defs><linearGradient id="a"><stop offset="0" stop-color="#fff"/><stop offset="1" stop-color="#afafaf"/></linearGradient><radialGradient id="b" cx="85.86" cy="53.06" r="36.78" xlink:href="#a" fx="85.86" fy="53.06" gradientTransform="matrix(.80626 0 0 .55196 16.635 23.775)" gradientUnits="userSpaceOnUse"/></defs><g><g><path fill="#dedfe0" d="M18.16 84c0-36.36 29.48-65.84 65.84-65.84S149.84 47.64 149.84 84 120.36 149.84 84 149.84 18.16 120.36 18.16 84"/><path fill="#94d0f3" d="M84 18.16c-36.36 0-65.84 29.48-65.84 65.84 0 8.2 1.5 16.02 4.24 23.25h123.2c2.73-7.23 4.24-15.06 4.24-23.25 0-36.36-29.48-65.84-65.84-65.84z"/></g><g><path fill="#fff" stroke="#231f20" stroke-width=".58" stroke-miterlimit="22.93" d="M85.86 66.95H43.43v6.3h85.48v-6.3z"/><path fill="#fff" stroke="#231f20" stroke-width=".58" stroke-miterlimit="22.93" d="M127.12 108.3V98.23h10.57v10.05zm0-10.06zM137.7 113V98.25h8.47V113zm0-14.76zm-10.58 24.38V108.3h10.57v14.32zm0-14.33zm-41.26 1.63h-44.1v12.7h85.36v-12.7zM30.76 98.1h10.58v10.14H30.76zm0 10.14h10.58v14.45H30.76zm-8.66 4.6v-14.8h8.47v14.8zm0-14.8z"/><path fill="#231f20" d="M35.13 101.4v5.23h2.6v-5.22zm3.06.04v5.22h2.73v-5.22zm-6.52.03v5.1h2.55v-5.1zm-9.25.5v9.63h7.14v-9.64z"/><path fill="#fff" stroke="#231f20" stroke-width=".58" stroke-miterlimit="22.93" d="M85.86 64.4H40.1v2.55h90.44V64.4z"/><path fill="#393536" d="M47.7 67.98v4.25h5.2v-4.25zm6.4 0v4.25h5.22v-4.25zm6.42 0v4.25h5.2v-4.25zm6.4 0v4.25h5.23v-4.25zm6.42 0v4.25h5.22v-4.25zm6.4 0v4.25H85v-4.25h-2.62zm6.43 0v4.25h5.2v-4.25zm6.4 0v4.25h5.22v-4.25zm6.42 0v4.25h5.2v-4.25zm6.4 0v4.25h5.22v-4.25zm6.4 0v4.25h5.23v-4.25zm6.43 0v4.25h5.2v-4.25z"/><path fill="#231f20" d="M131.7 101.54v5.18h3.07v-5.18zm3.6 0v5.18h1.98v-5.18zm-8.2.02v5.08h4v-5.08zm11.92.76v9.64h7.15v-9.64z"/><path fill="#e9e9e9" d="M85.86 75.52H40.1v32.77h88.68V75.5H85.86"/><path fill="url(#b)" stroke="#231f20" stroke-width=".58" stroke-miterlimit="22.93" d="M122.06 60.57h-72.4m72.4 0s-11.44-15.02-36.2-15.02c-24.76 0-36.2 15.02-36.2 15.02z"/><path fill="none" stroke="#231f20" stroke-width=".58" stroke-miterlimit="22.93" d="M122.06 60.57s-13.1-6.1-36.2-6.1-36.2 6.1-36.2 6.1m37.8 0l6.6-5.5s0-2.07-8.2-8.86c-8.2 6.8-8.2 8.86-8.2 8.86l6.62 5.5m7.9 0l10-4.95s-2.06-4.84-16.32-10.05c-14.25 5.2-16.3 10.06-16.3 10.06l10 4.97m20.92 0l11.52-3.2s-8.85-8.9-26.14-11.82c-17.28 2.9-26.13 11.82-26.13 11.82l11.5 3.2m50.83 0s-11.44-15.02-36.2-15.02c-24.76 0-36.2 15.02-36.2 15.02z"/><path fill="#fff" stroke="#231f20" stroke-width=".58" stroke-miterlimit="22.93" d="M85.86 60.57H38.2v3.83h93.65v-3.83z"/><path fill="#231f20" d="M100.6 60.57s-9.17-.66-14.74-.66c-5.56 0-14.74.67-14.74.67h29.48"/><path fill="#fff" stroke="#231f20" stroke-width=".58" stroke-miterlimit="22.93" d="M85.73 104.1H38.47v2.28h92.35v-2.27zm.13-11.68h-47.4v2.27h92.62V92.4zm0-6.62H40.78V88h87.44v-2.2zm0-3.06H40.78v1.9h87.44v-1.9z"/><path fill="#fff" stroke="#231f20" stroke-width=".58" stroke-miterlimit="22.93" d="M127.36 107.95v-32.7h1.45v32.7zm0-32.7zm-3.36 32.7v-32.7h1.45v32.7zm0-32.7zm-3.35 32.7v-32.7h1.45v32.7zm0-32.7zm-3.36 32.7v-32.7h1.44v32.7zm0-32.7zm-3.37 32.7v-32.7h1.46v32.7zm0-32.7zm-3.35 32.7v-32.7h1.45v32.7zm0-32.7zm-3.36 32.7v-32.7h1.45v32.7zm0-32.7zm-3.36 32.7v-32.7h1.46v32.7zm0-32.7zm-3.35 32.7v-32.7h1.46v32.7zm0-32.7zm-3.35 32.7v-32.7h1.46v32.7zm0-32.7zm-3.35 32.7v-32.7h1.45v32.7zm0-32.7zm-3.36 32.7v-32.7h1.45v32.7zm0-32.7zm-3.36 32.7v-32.7h1.46v32.7zm0-32.7zm-3.35 32.7v-32.7h1.45v32.7zm0-32.7zm-3.36 32.7v-32.7h1.45v32.7zm0-32.7zm-3.35 32.7v-32.7h1.45v32.7zm0-32.7zm-3.36 32.7v-32.7h1.45v32.7zm0-32.7zm-3.36 32.7v-32.7h1.46v32.7zm0-32.7zm-3.35 32.7v-32.7h1.45v32.7zm0-32.7zm-3.36 32.7v-32.7h1.44v32.7zm0-32.7zm-3.37 32.7v-32.7h1.46v32.7zm0-32.7zm-3.35 32.7v-32.7h1.45v32.7zm0-32.7zm-3.36 32.7v-32.7h1.46v32.7zm0-32.7zm-3.35 32.7v-32.7h1.45v32.7zm0-32.7zm-3.36 32.7v-32.7h1.46v32.7zm0-32.7zm-3.35 32.7v-32.7h1.46v32.7zm0-32.7zm-3.35 32.7v-32.7h1.45v32.7zm0-32.7z"/><path fill="#fff" stroke="#231f20" stroke-width=".58" stroke-miterlimit="22.93" d="M51.54 108V96.9H73.7V108zm0-11.13z"/><path fill="#e9e9e9" stroke="#231f20" stroke-width=".58" stroke-miterlimit="22.93" d="M53.46 104.92v-6.9h18.28v6.9zm0-6.9z"/><path fill="#fff" stroke="#231f20" stroke-width=".58" stroke-miterlimit="22.93" d="M38.47 73.25v2.27h92.6v-2.27h-45.2zm13.1 31.62v1.48h22.12v-1.48zm-11.47 3.07v1.98h88.7v-1.98H85.87z"/><path fill="#231f20" d="M43.86 110.92v7.42h2.55v-7.42zm3.96 0v7.42h2.55v-7.42zm3.96 0v7.42h2.55v-7.42zm3.97 0v7.42h2.55v-7.42zm3.96 0v7.42h2.57v-7.42zm3.98 0v7.42h2.55v-7.42zm3.96 0v7.42h2.55v-7.42zm3.96 0v7.42h2.55v-7.42zm3.97 0v7.42h2.55v-7.42zm3.96 0v7.42h2.55v-7.42zm3.97 0v7.42h2.54v-7.42zm3.96 0v7.42H90v-7.42zm3.97 0v7.42h2.54v-7.42zm3.96 0v7.42h2.54v-7.42zm3.96 0v7.42h2.54v-7.42zm3.96 0v7.42h2.55v-7.42zm3.96 0v7.42h2.55v-7.42zm3.96 0v7.42h2.56v-7.42zm3.97 0v7.42h2.56v-7.42zm3.97 0v7.42h2.56v-7.42zm3.97 0v7.42h2.55v-7.42z"/><path fill="#231f20" d="M85.86 42.58c-2.3 0-5.05 3.02-5.05 3.02s1.38.55 5.06.55c3.7 0 5.06-.55 5.06-.55s-2.74-3.02-5.06-3.02z"/></g><g><path fill="#fff" stroke="#2e3192" stroke-width=".64" stroke-miterlimit="22.93" d="M61.96 125.5v8.13c0 4.96 2.5 6.67 6.95 6.67 4.8 0 6.94-2.03 6.94-6.65v-8.15H71.1v8.63c0 1.56-.5 2.64-2.2 2.64-1.93 0-2.2-1.22-2.2-2.64v-8.63z"/><path fill="#fff" stroke="#2e3192" stroke-width=".64" stroke-miterlimit="22.93" d="M78.5 125.5v14.42h4.72v-4.5h2.4c4.13 0 5.97-1.95 5.97-5.05 0-2.97-2-4.87-6.15-4.87H78.5zm4.72 3.37h1.35c1 0 2.52.18 2.52 1.52 0 1.23-.8 1.67-1.9 1.67H83.2v-3.2z"/><path fill="#fff" d="M93.37 125.5v14.42h7.03c3.74 0 6.2-1.13 6.2-4.35 0-1.56-.84-2.9-2.4-3.3.92-.58 1.88-1.66 1.88-3.14 0-2.87-2.58-3.63-5.82-3.63h-6.9zm4.73 3.37h1.66c1 0 1.92.02 1.92 1.14 0 .85-.68 1.27-1.62 1.27H98.1v-2.4zm0 5.02h1.5c1.5 0 2.6.07 2.6 1.33 0 1.08-.88 1.32-2.04 1.32H98.1v-2.66z"/><path fill="none" stroke="#2e3192" stroke-width=".64" stroke-miterlimit="22.93" d="M93.37 125.5v14.42h7.03c3.74 0 6.2-1.13 6.2-4.35 0-1.56-.84-2.9-2.4-3.3.92-.58 1.88-1.66 1.88-3.14 0-2.87-2.58-3.63-5.82-3.63z"/><path fill="none" stroke="#2e3192" stroke-width=".64" stroke-miterlimit="22.93" d="M98.1 131.27h1.96c.94 0 1.62-.42 1.62-1.26 0-1.1-.92-1.13-1.92-1.13H98.1v5.02h1.5c1.5 0 2.6.07 2.6 1.33 0 1.08-.88 1.32-2.04 1.32H98.1v-2.66"/></g></g><g><g><path fill="#ed1c24" d="M166.68 84c0-17.97-5.74-34.6-15.47-48.15l-16.6 11.9c7.33 10.2 11.64 22.72 11.64 36.25 0 24.13-13.73 45.05-33.8 55.38l9.34 18.18c26.66-13.72 44.9-41.5 44.9-73.56"/><path fill="#fff" d="M151 46.14l-8.72 4.4 1.5 3c.72 1.43 1.65 2.3 2.76 2.6 1.1.27 2.42.04 3.92-.72 1.4-.7 2.26-1.57 2.6-2.65.32-1.05.14-2.26-.55-3.63zm-.4 1.66l1 1.95c.52 1.04.6 1.93.27 2.67-.35.73-1.06 1.37-2.15 1.92-1.4.7-2.47.85-3.24.46-.76-.4-1.32-.95-1.67-1.66l-.96-1.93zm4.84 7.83l-9.1 3.53.46 1.2 9.12-3.52zm1.57 4l-9.4 2.6.33 1.2 7.56-2.07-6.2 7.02.38 1.37 9.42-2.62-.33-1.2-7.65 2.1 6.26-7.07zm3.36 14.92l-9.74.73.35 4.7c.07.94.4 1.64 1 2.13.58.5 1.26.7 2.02.64.6-.04 1.1-.24 1.5-.6.4-.33.64-.82.73-1.43.22.44.54.77.94 1 .4.23.85.33 1.36.3.46-.04.86-.2 1.18-.42.34-.23.58-.5.74-.82.16-.32.24-.7.25-1.1 0-.42-.02-.94-.07-1.58zm-1 1.38l.2 2.6c.06.65-.02 1.16-.2 1.54-.17.4-.57.6-1.18.64-.52.05-.93-.08-1.2-.4-.3-.3-.46-.82-.5-1.55l-.2-2.6zm-4.18.3v.02l.23 2.95c.05.63-.04 1.15-.26 1.56-.22.42-.62.64-1.2.7-.55.03-.98-.1-1.32-.4-.34-.32-.52-.76-.56-1.32l-.25-3.25zm-.46 8.34c-1.27-.1-2.23.2-2.9.85-.65.66-1.03 1.63-1.1 2.9-.08 1.24.17 2.2.77 2.92.6.7 1.5 1.1 2.73 1.17l6.23.4.08-1.3-6.23-.4c-.85-.05-1.5-.3-1.93-.77-.42-.47-.62-1.1-.56-1.93.06-.87.34-1.53.82-1.96.47-.44 1.16-.63 2.02-.58l6.23.4.08-1.3zm-.47 9.8c-1.03-.07-1.95.1-2.77.53-1.08.57-1.78 1.56-2.08 3-.25 1.2-.1 2.24.42 3.1.52.84 1.37 1.46 2.55 1.84l.27-1.28c-.82-.17-1.42-.56-1.83-1.18-.4-.6-.52-1.32-.35-2.15.23-1.1.78-1.83 1.65-2.22.84-.37 1.87-.44 3.04-.2 1.1.24 1.97.7 2.6 1.4.62.7.82 1.57.6 2.66-.15.7-.45 1.25-.9 1.66-.44.4-1 .6-1.7.6l-.27 1.27c1.03.05 1.88-.22 2.58-.83.7-.6 1.14-1.44 1.35-2.47.3-1.44.06-2.65-.73-3.64-.78-1-1.9-1.64-3.36-1.95-.35-.06-.7-.1-1.05-.13zm-4.2 9.84c-.5 0-.96.12-1.37.34-.82.45-1.45 1.26-1.9 2.47-.42 1.17-.44 2.16-.07 3 .4.87 1.14 1.5 2.3 1.92l5.86 2.14.45-1.22-5.85-2.15c-.8-.3-1.37-.74-1.64-1.3-.27-.57-.27-1.24 0-2 .3-.84.76-1.38 1.35-1.67.58-.28 1.3-.27 2.1.03l5.86 2.14.46-1.23-5.87-2.13c-.6-.22-1.15-.33-1.66-.33zm-5.13 8.16l-.6 1.15 3.67 1.98-1.5 2.8c-.22.4-.48.66-.82.8-.32.12-.82.05-1.5-.2-.22-.08-.6-.22-1.16-.5-.55-.27-.94-.38-1.14-.32l-.7 1.3c.38-.08.83-.04 1.33.16.46.18.92.4 1.4.6.5.2.93.3 1.33.3.4-.02.76-.24 1.1-.64-.13.58-.06 1.1.18 1.55.26.44.66.8 1.22 1.1.7.38 1.37.45 2.02.2.65-.27 1.2-.8 1.63-1.6l2.17-4.06zm4.04 3.63l3 1.6-1.52 2.85c-.28.52-.62.83-1.03.94-.38.1-.8.03-1.25-.2-.6-.32-.9-.7-.93-1.18-.03-.47.13-1.02.46-1.64zm-8.5 4.35l-3.93 5.53.9.64 3.18-4.47 2.76 1.96-2.94 4.14.9.64 2.94-4.13 2.53 1.8-3.17 4.44.9.62 3.9-5.5zm-8.24 6.46c-.25.14-.45.25-.6.36-.15.1-.3.24-.45.4-.3.32-.5.68-.57 1.07-.1.38 0 .72.32 1 .23.22.48.3.77.25.28-.05.52-.18.73-.4.14-.17.22-.3.24-.4h.04l.1.64c-.56.73-.87 1.5-.94 2.3-.1.8.2 1.5.84 2.1.5.45 1.06.7 1.68.7.6 0 1.44-.36 2.5-1.08 1.04-.74 1.78-1.2 2.2-1.38.4-.2.82-.12 1.2.24.44.4.62.85.53 1.34-.1.46-.34.94-.77 1.4-.47.52-.97.82-1.5.9-.53.1-1.07-.07-1.6-.47l-.84.9c.74.7 1.54.97 2.37.83.84-.14 1.62-.6 2.33-1.38.67-.73 1.05-1.5 1.17-2.35.1-.82-.18-1.56-.87-2.2-.45-.4-.98-.62-1.58-.6-.58.03-1.3.37-2.2.98-.88.62-1.6 1.1-2.17 1.4-.56.33-1.1.25-1.6-.22-.47-.44-.66-.92-.54-1.46.14-.53.44-1.05.9-1.57.56-.6 1.17-.95 1.84-1.1.65-.1 1.26.07 1.83.6l.84-.9c-.82-.78-1.7-1.07-2.64-.93-.93.15-1.78.64-2.57 1.5l-.18-1.05-.44-.1c-.06.14-.1.25-.15.3-.03.06-.08.13-.15.2-.12.13-.26.23-.4.26-.14.05-.26 0-.35-.07-.1-.1-.13-.23-.07-.4.06-.16.18-.33.34-.5l.3-.28c.1-.07.24-.16.4-.22zm-4.22 7.84l-1 .84 5.65 6.6-2.48 2.12.7.83 5.96-5.07-.7-.83-2.5 2.1zm-4.35 3.48l-1.05.76 5.7 7.93 1.06-.75z"/></g><g><path fill="#fddd04" d="M84 21.76c20.85 0 39.3 10.25 50.6 26l16.6-11.9C136.2 14.93 111.7 1.3 84 1.3c-27.7 0-52.2 13.62-67.2 34.53l16.6 11.9c11.3-15.74 29.75-26 50.6-26"/><path fill="#231f20" d="M86.35 6.66l-8.43.2.25 10.18 8.58-.2-.07-2.6-5.44.12-.03-1.27 4.82-.13-.06-2.42-4.8.1-.04-1.26 5.3-.13zm3.85.2l-1.4 10.07 3.1.43.56-4 2.9.4-.55 4 3.1.44 1.42-10.08-3.1-.43-.5 3.5-2.9-.42.5-3.5zm-15.6.32l-8.7 1.56.48 2.57 2.8-.5 1.34 7.46 3.1-.56-1.35-7.45 2.8-.5zm28.55 1.8l-3.1 9.7 2.83.9 1.7-5.28 1.3 6.25 2.9.92 3.1-9.7-2.82-.9-1.68 5.18-1.17-6.08zM63 9.62l-3 .93 2.96 9.74 3-.9zm52.16 3.67l-4.3 9.23 2.85 1.32 4.3-9.23zm-62.35.02l-2.87 1.24 4.05 9.34 7-3.04-1.02-2.4-4.14 1.8zm69.7 4.33c-.32 0-.64.05-.97.13-1.3.33-2.4 1.16-3.25 2.53-.83 1.3-1.12 2.63-.87 3.97.25 1.33 1.04 2.42 2.4 3.28 1.2.75 2.4 1 3.57.7 1.16-.27 2.04-.87 2.63-1.8l-2.6-1.65c-.38.4-.76.66-1.13.78-.37.12-.76.04-1.18-.22-.6-.37-.87-.86-.83-1.48.02-.6.25-1.26.67-1.92.4-.67.9-1.13 1.45-1.43.53-.3 1.1-.26 1.67.1.37.24.6.53.7.92.12.37.08.78-.1 1.22l2.57 1.62c.57-1.18.7-2.26.42-3.27-.28-1-1-1.86-2.17-2.6-1-.63-2-.93-3-.9zm-77.3.15c-.98-.02-1.96.28-2.92.9-1.3.83-2.1 1.92-2.35 3.27-.27 1.34.03 2.67.88 4 .85 1.32 1.95 2.14 3.3 2.46 1.32.33 2.64.08 3.93-.74 1.3-.84 2.08-1.93 2.35-3.28.26-1.34-.03-2.68-.88-4-.84-1.32-1.95-2.14-3.3-2.46-.32-.08-.65-.13-1-.14zm-.84 2.77c.25-.04.52-.02.8.05.6.13 1.15.62 1.7 1.48.54.85.75 1.58.63 2.16-.13.57-.4 1-.84 1.28-.43.27-.95.34-1.52.2-.58-.13-1.15-.6-1.7-1.46-.54-.86-.75-1.6-.63-2.17.13-.58.4-1 .85-1.3.2-.13.45-.22.7-.25zm-8.65 4.4c-.93-.13-1.86.23-2.8 1.1l-3.88 3.5 6.83 7.55 2.33-2.1-2.07-2.3 1.4-1.23c.9-.82 1.4-1.7 1.54-2.64.1-.93-.23-1.83-1.03-2.72-.6-.65-1.35-1.03-2.3-1.16zm98.52.32l-9.57 5.1 2.36 2.1 1.32-.78 2.4 2.15-.63 1.36 2.4 2.18 4-10.08zm-99.14 2.57c.25-.07.53.04.8.34.25.27.34.54.3.82-.03.28-.3.66-.8 1.1l-.9.82-1.4-1.54 1.05-.93c.37-.33.68-.54.95-.6zm98.04 1l-1.4 2.96-1.44-1.28z"/></g><g><path fill="#2350a9" d="M21.76 84c0-13.53 4.3-26.04 11.64-36.25l-16.6-11.9C7.05 49.4 1.3 66.03 1.3 84c0 32.05 18.24 59.84 44.9 73.56l9.34-18.18C35.5 129.05 21.76 108.13 21.76 84"/><path fill="#fff" d="M13.88 52.5l-.58 1.3 7.42 7.43.53-1.23L19 57.82l1.66-3.8 3.12.22.58-1.32zm.78 1.13l4.83.33L18.15 57zm-3.34 5.07L9.4 65.17l9.37 2.77 1.93-6.5-1.05-.32-1.55 5.27-3.25-.97 1.44-4.87-1.06-.32-1.44 4.88-2.98-.88L12.37 59zM8.9 67.15l-1.32 7.7 1.08.2.55-3.22 8.57 1.46.2-1.3-8.54-1.45.55-3.2zm8.3 9.06l-9.93 3.36L7.2 81l9.58 4.28.06-1.34-2.9-1.23.2-4.13 3-.92zm-4.16 2.73l-.16 3.3-4.47-1.9zm-4.9 6.7l-1.07.08.56 7.8 1.1-.07-.25-3.25 8.66-.63-.1-1.3-8.65.63zm9.5 8.18l-9.67 1.52.2 1.3 9.66-1.52zm-1.6 3.34c-.2 0-.43.04-.66.1-.67.16-1.17.5-1.5 1.02-.34.5-.5 1.4-.48 2.68.04 1.27 0 2.14-.06 2.6-.07.45-.34.74-.86.87-.57.16-1.05.07-1.4-.28-.34-.34-.6-.8-.75-1.42-.18-.68-.15-1.26.07-1.76.2-.5.64-.85 1.27-1.08l-.3-1.2c-1 .26-1.66.77-2 1.55-.34.8-.38 1.7-.12 2.7.24.97.68 1.72 1.32 2.28.63.54 1.4.7 2.32.47.6-.15 1.04-.48 1.35-1 .3-.5.42-1.28.4-2.36-.04-1.1-.04-1.95 0-2.6.05-.64.4-1.04 1.08-1.2.63-.17 1.13-.06 1.52.34.37.4.64.94.8 1.62.2.78.18 1.5-.08 2.12-.25.62-.74 1.02-1.5 1.2l.3 1.2c1.1-.27 1.85-.85 2.23-1.73.38-.86.42-1.88.13-3.02-.25-.98-.7-1.78-1.36-2.4-.5-.48-1.07-.7-1.72-.7zm4.03 7.7c-.18.33-.5.65-.98.9-.44.23-.9.44-1.38.68-.47.23-.83.5-1.07.82-.24.32-.3.73-.22 1.25-.37-.48-.8-.76-1.3-.87-.5-.1-1.05-.03-1.63.2-.74.3-1.23.77-1.45 1.44-.22.66-.17 1.42.17 2.27l1.7 4.28L23 112.2l-.48-1.2-3.88 1.53-1.17-2.94c-.17-.43-.2-.8-.1-1.15.12-.32.5-.67 1.13-1.03.2-.1.56-.3 1.12-.56.57-.25.9-.47 1-.67zM15 108.8c.26 0 .48.08.67.22.38.28.7.75.95 1.4l1 2.5-3.16 1.28-1.2-3c-.22-.55-.24-1-.05-1.4.18-.36.5-.65.97-.84.3-.12.6-.18.84-.17zm8.58 4.6l-.96.55 2.68 4.8-2.96 1.64-2.47-4.45-.96.53 2.5 4.44-2.73 1.5-2.65-4.74-.96.53 3.3 5.9 8.52-4.76zm5.75 9.5l-9.95 2.94.8 1.1 8.52-2.7-5.2 7.25.83 1.13 5.86-8.55zm3.64 4.65l-7.37 6.42.85.98 7.37-6.42zm2.13 2.53l-6.72 7.1.9.85 5.46-5.73-1.7 9.3 1 .93 6.72-7.1-.9-.84-5.4 5.67 1.67-9.2zm8.15 7.64c-.24 0-.47 0-.7.03-.92.14-1.72.7-2.43 1.72l-3.6 5.1 1.06.75 3.6-5.1c.5-.7 1.06-1.13 1.68-1.25.62-.1 1.27.06 1.94.53.7.5 1.13 1.1 1.25 1.73.12.64-.08 1.3-.58 2.02l-3.6 5.1 1.06.75 3.6-5.1c.74-1.04 1-2 .8-2.92-.22-.9-.85-1.73-1.9-2.47-.76-.52-1.48-.82-2.18-.88z"/></g><g><path fill="#bdbcbc" d="M84 146.24c-10.25 0-19.92-2.47-28.44-6.86l-9.34 18.18c11.33 5.83 24.17 9.12 37.78 9.12 13.6 0 26.45-3.3 37.78-9.12l-9.34-18.18c-8.52 4.4-18.2 6.86-28.44 6.86"/><path fill="#231f20" d="M99.3 149.6c-.5-.04-1.08 0-1.72.14-1.02.2-1.87.6-2.6 1.16-.7.57-.94 1.33-.74 2.3.22 1.07.86 1.67 1.92 1.76-.52.2-.94.5-1.26.87-.3.36-.4.92-.25 1.66.22 1.08.8 1.78 1.73 2.1.92.3 2 .34 3.2.1 1.17-.24 2.13-.7 2.9-1.37.77-.67 1.04-1.54.83-2.6-.1-.57-.4-1.03-.84-1.35-.44-.3-.95-.46-1.5-.42.43-.2.77-.5.97-.94.2-.43.24-.9.14-1.4-.16-.76-.62-1.32-1.4-1.7-.4-.2-.86-.3-1.37-.33zm-29.3.18c-.15.74-.55 1.23-1.17 1.45-.63.2-1.35.23-2.16.06l-.4 2 2.27.47-1.15 5.6 2.9.6 2-9.73zm20.68 1.13l-2.34.16c.05.76-.2 1.33-.75 1.7-.55.37-1.24.6-2.07.64l.13 2.04 2.32-.14.36 5.7 2.97-.18zm-11.4.02c-1.05-.07-1.98.08-2.82.44-.82.36-1.27 1.04-1.33 2.02-.07 1.1.4 1.83 1.4 2.2-.57.06-1.05.24-1.45.5-.4.28-.63.8-.68 1.55-.07 1.1.3 1.93 1.1 2.5.82.53 1.86.84 3.1.92 1.18.08 2.22-.1 3.13-.56.92-.45 1.4-1.22 1.48-2.3.05-.58-.1-1.1-.44-1.52-.34-.42-.8-.7-1.35-.8.5-.07.9-.28 1.2-.65.3-.37.46-.8.5-1.32.05-.76-.25-1.43-.9-2-.68-.57-1.64-.9-2.93-.98zm19.3.62c.17 0 .34.03.5.08.3.1.47.36.55.78.08.37 0 .67-.26.88-.24.2-.58.34-1 .43-.4.1-.75.08-1.05-.04-.3-.1-.46-.34-.54-.7-.08-.4 0-.7.22-.92.22-.2.54-.35.96-.44.22-.04.42-.07.6-.06zm-19.43 1.27c.45.04.8.15 1.05.33.26.17.38.46.35.9-.03.37-.2.64-.48.77-.3.14-.66.2-1.1.16-.4-.03-.72-.13-.98-.32-.27-.17-.38-.46-.35-.8.02-.42.17-.7.46-.85.27-.15.62-.22 1.05-.2zm20.23 2.5c.2 0 .38.04.54.12.32.14.53.43.62.86.07.38-.03.7-.32.93-.28.24-.63.4-1.04.48-.43.1-.8.08-1.15-.03-.32-.1-.54-.35-.6-.73-.1-.46-.02-.82.24-1.08.25-.24.6-.4 1.07-.5.24-.04.45-.06.64-.05zm-20.46 1.33c.47.03.84.16 1.1.4.3.2.4.54.38.98-.03.4-.2.67-.54.82-.34.15-.72.2-1.13.18-.44-.03-.8-.14-1.1-.33-.3-.2-.43-.48-.4-.87.02-.47.2-.78.5-.96.32-.17.72-.24 1.2-.2z"/></g></g></svg>